<mxfile host="Electron" agent="Mozilla/5.0 (Windows NT 10.0; Win64; x64) AppleWebKit/537.36 (KHTML, like Gecko) draw.io/24.7.17 Chrome/128.0.6613.36 Electron/32.0.1 Safari/537.36" version="24.7.17">
  <diagram id="prtHgNgQTEPvFCAcTncT" name="Page-1">
    <mxGraphModel dx="2363" dy="1367" grid="1" gridSize="10" guides="1" tooltips="1" connect="1" arrows="1" fold="1" page="1" pageScale="1" pageWidth="827" pageHeight="1169" math="0" shadow="0">
      <root>
        <mxCell id="0" />
        <mxCell id="1" parent="0" />
        <mxCell id="dNxyNK7c78bLwvsdeMH5-19" value="Pizza Konfigurator" style="swimlane;html=1;childLayout=stackLayout;resizeParent=1;resizeParentMax=0;horizontal=0;startSize=20;horizontalStack=0;" parent="1" vertex="1">
          <mxGeometry x="40" y="80" width="1010" height="1020" as="geometry" />
        </mxCell>
        <mxCell id="dNxyNK7c78bLwvsdeMH5-20" value="Presentation Layer" style="swimlane;html=1;startSize=20;horizontal=0;" parent="dNxyNK7c78bLwvsdeMH5-19" vertex="1">
          <mxGeometry x="20" width="990" height="430" as="geometry">
            <mxRectangle x="20" width="430" height="30" as="alternateBounds" />
          </mxGeometry>
        </mxCell>
        <mxCell id="aPchaK3MJJFlwDpqy7zF-2" value="&lt;strong&gt;Benutzerschnittstelle (UI)&lt;/strong&gt;" style="shape=cube;whiteSpace=wrap;html=1;boundedLbl=1;backgroundOutline=1;darkOpacity=0.05;darkOpacity2=0.1;" vertex="1" parent="dNxyNK7c78bLwvsdeMH5-20">
          <mxGeometry x="420" y="50" width="280" height="90" as="geometry" />
        </mxCell>
        <mxCell id="aPchaK3MJJFlwDpqy7zF-19" value="&lt;pre style=&quot;&quot;&gt;&lt;u&gt;&lt;b&gt;&lt;code class=&quot;language-json&quot; style=&quot;font-size: 8px; color: rgb(57, 58, 52); font-family: Consolas, &amp;quot;Bitstream Vera Sans Mono&amp;quot;, &amp;quot;Courier New&amp;quot;, Courier, monospace; direction: ltr; word-spacing: normal; word-break: normal; line-height: 1.2em; tab-size: 4; hyphens: none;&quot;&gt;&lt;span class=&quot;token&quot;&gt;&lt;span style=&quot;color: rgb(0, 0, 0); font-family: Helvetica; font-size: 11px; white-space-collapse: collapse; background-color: rgb(255, 255, 255);&quot;&gt;Verfügbaren&amp;nbsp;&lt;/span&gt;&lt;/span&gt;&lt;/code&gt;&lt;font style=&quot;font-size: 11px;&quot; face=&quot;Helvetica&quot;&gt;Optionen&amp;nbsp;&lt;/font&gt;&lt;span style=&quot;font-size: 11px; font-family: Helvetica; white-space: normal; word-spacing: normal; background-color: initial;&quot;&gt;Antwort&lt;/span&gt;&lt;/b&gt;&lt;/u&gt;&lt;/pre&gt;&lt;pre style=&quot;font-size: 8px;&quot;&gt;&lt;code class=&quot;language-json&quot; style=&quot;color: rgb(57, 58, 52); font-family: Consolas, &amp;quot;Bitstream Vera Sans Mono&amp;quot;, &amp;quot;Courier New&amp;quot;, Courier, monospace; direction: ltr; word-spacing: normal; word-break: normal; line-height: 1.2em; tab-size: 4; hyphens: none;&quot;&gt;&lt;span class=&quot;token&quot;&gt;{&lt;/span&gt;&lt;br&gt;  &lt;span class=&quot;token&quot; style=&quot;color: rgb(255, 0, 0);&quot;&gt;&quot;sizes&quot;&lt;/span&gt;&lt;span class=&quot;token&quot;&gt;:&lt;/span&gt; &lt;span class=&quot;token&quot;&gt;[&lt;/span&gt;&lt;span class=&quot;token&quot; style=&quot;color: rgb(163, 21, 21);&quot;&gt;&quot;klein&quot;&lt;/span&gt;&lt;span class=&quot;token&quot;&gt;,&lt;/span&gt; &lt;span class=&quot;token&quot; style=&quot;color: rgb(163, 21, 21);&quot;&gt;&quot;mittel&quot;&lt;/span&gt;&lt;span class=&quot;token&quot;&gt;,&lt;/span&gt; &lt;span class=&quot;token&quot; style=&quot;color: rgb(163, 21, 21);&quot;&gt;&quot;groß&quot;&lt;/span&gt;&lt;span class=&quot;token&quot;&gt;,&lt;/span&gt; &lt;span class=&quot;token&quot; style=&quot;color: rgb(163, 21, 21);&quot;&gt;&quot;Familienpizza&quot;&lt;/span&gt;&lt;span class=&quot;token&quot;&gt;]&lt;/span&gt;&lt;span class=&quot;token&quot;&gt;,&lt;/span&gt;&lt;br&gt;  &lt;span class=&quot;token&quot; style=&quot;color: rgb(255, 0, 0);&quot;&gt;&quot;doughTypes&quot;&lt;/span&gt;&lt;span class=&quot;token&quot;&gt;:&lt;/span&gt; &lt;span class=&quot;token&quot;&gt;[&lt;/span&gt;&lt;span class=&quot;token&quot; style=&quot;color: rgb(163, 21, 21);&quot;&gt;&quot;klassisch&quot;&lt;/span&gt;&lt;span class=&quot;token&quot;&gt;,&lt;/span&gt; &lt;span class=&quot;token&quot; style=&quot;color: rgb(163, 21, 21);&quot;&gt;&quot;dünn&quot;&lt;/span&gt;&lt;span class=&quot;token&quot;&gt;,&lt;/span&gt; &lt;span class=&quot;token&quot; style=&quot;color: rgb(163, 21, 21);&quot;&gt;&quot;Vollkorn&quot;&lt;/span&gt;&lt;span class=&quot;token&quot;&gt;,&lt;/span&gt; &lt;span class=&quot;token&quot; style=&quot;color: rgb(163, 21, 21);&quot;&gt;&quot;glutenfrei&quot;&lt;/span&gt;&lt;span class=&quot;token&quot;&gt;,&lt;/span&gt; &lt;span class=&quot;token&quot; style=&quot;color: rgb(163, 21, 21);&quot;&gt;&quot;Käserand&quot;&lt;/span&gt;&lt;span class=&quot;token&quot;&gt;]&lt;/span&gt;&lt;span class=&quot;token&quot;&gt;,&lt;/span&gt;&lt;br&gt;  &lt;span class=&quot;token&quot; style=&quot;color: rgb(255, 0, 0);&quot;&gt;&quot;sauces&quot;&lt;/span&gt;&lt;span class=&quot;token&quot;&gt;:&lt;/span&gt; &lt;span class=&quot;token&quot;&gt;[&lt;/span&gt;&lt;span class=&quot;token&quot; style=&quot;color: rgb(163, 21, 21);&quot;&gt;&quot;Tomatensauce&quot;&lt;/span&gt;&lt;span class=&quot;token&quot;&gt;,&lt;/span&gt; &lt;span class=&quot;token&quot; style=&quot;color: rgb(163, 21, 21);&quot;&gt;&quot;BBQ-Sauce&quot;&lt;/span&gt;&lt;span class=&quot;token&quot;&gt;,&lt;/span&gt; &lt;span class=&quot;token&quot; style=&quot;color: rgb(163, 21, 21);&quot;&gt;&quot;Creme Fraiche&quot;&lt;/span&gt;&lt;span class=&quot;token&quot;&gt;,&lt;/span&gt; &lt;span class=&quot;token&quot; style=&quot;color: rgb(163, 21, 21);&quot;&gt;&quot;Pesto&quot;&lt;/span&gt;&lt;span class=&quot;token&quot;&gt;]&lt;/span&gt;&lt;span class=&quot;token&quot;&gt;,&lt;/span&gt;&lt;br&gt;  &lt;span class=&quot;token&quot; style=&quot;color: rgb(255, 0, 0);&quot;&gt;&quot;cheeses&quot;&lt;/span&gt;&lt;span class=&quot;token&quot;&gt;:&lt;/span&gt; &lt;span class=&quot;token&quot;&gt;[&lt;/span&gt;&lt;span class=&quot;token&quot; style=&quot;color: rgb(163, 21, 21);&quot;&gt;&quot;Mozzarella&quot;&lt;/span&gt;&lt;span class=&quot;token&quot;&gt;,&lt;/span&gt; &lt;span class=&quot;token&quot; style=&quot;color: rgb(163, 21, 21);&quot;&gt;&quot;Gouda&quot;&lt;/span&gt;&lt;span class=&quot;token&quot;&gt;,&lt;/span&gt; &lt;span class=&quot;token&quot; style=&quot;color: rgb(163, 21, 21);&quot;&gt;&quot;Cheddar&quot;&lt;/span&gt;&lt;span class=&quot;token&quot;&gt;,&lt;/span&gt; &lt;span class=&quot;token&quot; style=&quot;color: rgb(163, 21, 21);&quot;&gt;&quot;Parmesan&quot;&lt;/span&gt;&lt;span class=&quot;token&quot;&gt;,&lt;/span&gt; &lt;span class=&quot;token&quot; style=&quot;color: rgb(163, 21, 21);&quot;&gt;&quot;veganer Käse&quot;&lt;/span&gt;&lt;span class=&quot;token&quot;&gt;]&lt;/span&gt;&lt;span class=&quot;token&quot;&gt;,&lt;/span&gt;&lt;br&gt;  &lt;span class=&quot;token&quot; style=&quot;color: rgb(255, 0, 0);&quot;&gt;&quot;toppings&quot;&lt;/span&gt;&lt;span class=&quot;token&quot;&gt;:&lt;/span&gt; &lt;span class=&quot;token&quot;&gt;{&lt;/span&gt;&lt;br&gt;    &lt;span class=&quot;token&quot; style=&quot;color: rgb(255, 0, 0);&quot;&gt;&quot;meat&quot;&lt;/span&gt;&lt;span class=&quot;token&quot;&gt;:&lt;/span&gt; &lt;span class=&quot;token&quot;&gt;[&lt;/span&gt;&lt;span class=&quot;token&quot; style=&quot;color: rgb(163, 21, 21);&quot;&gt;&quot;Salami&quot;&lt;/span&gt;&lt;span class=&quot;token&quot;&gt;,&lt;/span&gt; &lt;span class=&quot;token&quot; style=&quot;color: rgb(163, 21, 21);&quot;&gt;&quot;Schinken&quot;&lt;/span&gt;&lt;span class=&quot;token&quot;&gt;,&lt;/span&gt; &lt;span class=&quot;token&quot; style=&quot;color: rgb(163, 21, 21);&quot;&gt;&quot;Hähnchen&quot;&lt;/span&gt;&lt;span class=&quot;token&quot;&gt;,&lt;/span&gt; &lt;span class=&quot;token&quot; style=&quot;color: rgb(163, 21, 21);&quot;&gt;&quot;Bacon&quot;&lt;/span&gt;&lt;span class=&quot;token&quot;&gt;]&lt;/span&gt;&lt;span class=&quot;token&quot;&gt;,&lt;/span&gt;&lt;br&gt;    &lt;span class=&quot;token&quot; style=&quot;color: rgb(255, 0, 0);&quot;&gt;&quot;vegetables&quot;&lt;/span&gt;&lt;span class=&quot;token&quot;&gt;:&lt;/span&gt; &lt;span class=&quot;token&quot;&gt;[&lt;/span&gt;&lt;span class=&quot;token&quot; style=&quot;color: rgb(163, 21, 21);&quot;&gt;&quot;Paprika&quot;&lt;/span&gt;&lt;span class=&quot;token&quot;&gt;,&lt;/span&gt; &lt;span class=&quot;token&quot; style=&quot;color: rgb(163, 21, 21);&quot;&gt;&quot;Zwiebeln&quot;&lt;/span&gt;&lt;span class=&quot;token&quot;&gt;,&lt;/span&gt; &lt;span class=&quot;token&quot; style=&quot;color: rgb(163, 21, 21);&quot;&gt;&quot;Oliven&quot;&lt;/span&gt;&lt;span class=&quot;token&quot;&gt;,&lt;/span&gt; &lt;span class=&quot;token&quot; style=&quot;color: rgb(163, 21, 21);&quot;&gt;&quot;Champignons&quot;&lt;/span&gt;&lt;span class=&quot;token&quot;&gt;]&lt;/span&gt;&lt;span class=&quot;token&quot;&gt;,&lt;/span&gt;&lt;br&gt;    &lt;span class=&quot;token&quot; style=&quot;color: rgb(255, 0, 0);&quot;&gt;&quot;extras&quot;&lt;/span&gt;&lt;span class=&quot;token&quot;&gt;:&lt;/span&gt; &lt;span class=&quot;token&quot;&gt;[&lt;/span&gt;&lt;span class=&quot;token&quot; style=&quot;color: rgb(163, 21, 21);&quot;&gt;&quot;Jalapeños&quot;&lt;/span&gt;&lt;span class=&quot;token&quot;&gt;,&lt;/span&gt; &lt;span class=&quot;token&quot; style=&quot;color: rgb(163, 21, 21);&quot;&gt;&quot;Ananas&quot;&lt;/span&gt;&lt;span class=&quot;token&quot;&gt;,&lt;/span&gt; &lt;span class=&quot;token&quot; style=&quot;color: rgb(163, 21, 21);&quot;&gt;&quot;Artischocken&quot;&lt;/span&gt;&lt;span class=&quot;token&quot;&gt;]&lt;/span&gt;&lt;span class=&quot;token&quot;&gt;,&lt;/span&gt;&lt;br&gt;    &lt;span class=&quot;token&quot; style=&quot;color: rgb(255, 0, 0);&quot;&gt;&quot;specialties&quot;&lt;/span&gt;&lt;span class=&quot;token&quot;&gt;:&lt;/span&gt; &lt;span class=&quot;token&quot;&gt;[&lt;/span&gt;&lt;span class=&quot;token&quot; style=&quot;color: rgb(163, 21, 21);&quot;&gt;&quot;Trüffelöl&quot;&lt;/span&gt;&lt;span class=&quot;token&quot;&gt;,&lt;/span&gt; &lt;span class=&quot;token&quot; style=&quot;color: rgb(163, 21, 21);&quot;&gt;&quot;Rucola&quot;&lt;/span&gt;&lt;span class=&quot;token&quot;&gt;,&lt;/span&gt; &lt;span class=&quot;token&quot; style=&quot;color: rgb(163, 21, 21);&quot;&gt;&quot;Feta&quot;&lt;/span&gt;&lt;span class=&quot;token&quot;&gt;]&lt;/span&gt;&lt;br&gt;  &lt;span class=&quot;token&quot;&gt;}&lt;/span&gt;&lt;span class=&quot;token&quot;&gt;,&lt;/span&gt;&lt;br&gt;  &lt;span class=&quot;token&quot; style=&quot;color: rgb(255, 0, 0);&quot;&gt;&quot;extras&quot;&lt;/span&gt;&lt;span class=&quot;token&quot;&gt;:&lt;/span&gt; &lt;span class=&quot;token&quot;&gt;[&lt;/span&gt;&lt;span class=&quot;token&quot; style=&quot;color: rgb(163, 21, 21);&quot;&gt;&quot;Knoblauchbrot&quot;&lt;/span&gt;&lt;span class=&quot;token&quot;&gt;,&lt;/span&gt; &lt;span class=&quot;token&quot; style=&quot;color: rgb(163, 21, 21);&quot;&gt;&quot;Salat&quot;&lt;/span&gt;&lt;span class=&quot;token&quot;&gt;,&lt;/span&gt; &lt;span class=&quot;token&quot; style=&quot;color: rgb(163, 21, 21);&quot;&gt;&quot;Dip-Saucen&quot;&lt;/span&gt;&lt;span class=&quot;token&quot;&gt;]&lt;/span&gt;&lt;br&gt;&lt;span class=&quot;token&quot;&gt;}&lt;/span&gt;&lt;/code&gt;&lt;/pre&gt;" style="shape=note;whiteSpace=wrap;html=1;backgroundOutline=1;darkOpacity=0.05;align=left;" vertex="1" parent="dNxyNK7c78bLwvsdeMH5-20">
          <mxGeometry x="50" y="80" width="340" height="160" as="geometry" />
        </mxCell>
        <mxCell id="aPchaK3MJJFlwDpqy7zF-21" value="&lt;div style=&quot;font-size: 11px; text-wrap: nowrap;&quot;&gt;&lt;u&gt;&lt;b&gt;Optionen&amp;nbsp;&lt;span style=&quot;background-color: rgb(255, 255, 255);&quot;&gt;Konfigutation&amp;nbsp;&lt;/span&gt;&lt;span style=&quot;background-color: initial;&quot;&gt;Anfrage&lt;/span&gt;&lt;/b&gt;&lt;/u&gt;&lt;/div&gt;&lt;div style=&quot;font-size: 8px; text-wrap: nowrap;&quot;&gt;&lt;span style=&quot;background-color: initial;&quot;&gt;&lt;div&gt;&lt;font face=&quot;Lucida Console&quot;&gt;{&lt;/font&gt;&lt;/div&gt;&lt;div&gt;&lt;font face=&quot;U1hpZtVvTLcUlfGHgEqY&quot;&gt;&amp;nbsp; &quot;size&quot;: &quot;groß&quot;,&lt;/font&gt;&lt;/div&gt;&lt;div&gt;&lt;font face=&quot;U1hpZtVvTLcUlfGHgEqY&quot;&gt;&amp;nbsp; &quot;doughType&quot;: &quot;dünn&quot;,&lt;/font&gt;&lt;/div&gt;&lt;div&gt;&lt;font face=&quot;U1hpZtVvTLcUlfGHgEqY&quot;&gt;&amp;nbsp; &quot;sauce&quot;: &quot;Tomatensauce&quot;,&lt;/font&gt;&lt;/div&gt;&lt;div&gt;&lt;font face=&quot;U1hpZtVvTLcUlfGHgEqY&quot;&gt;&amp;nbsp; &quot;cheese&quot;: &quot;Mozzarella&quot;,&lt;/font&gt;&lt;/div&gt;&lt;div&gt;&lt;font face=&quot;U1hpZtVvTLcUlfGHgEqY&quot;&gt;&amp;nbsp; &quot;toppings&quot;: {&lt;/font&gt;&lt;/div&gt;&lt;div&gt;&lt;font face=&quot;U1hpZtVvTLcUlfGHgEqY&quot;&gt;&amp;nbsp; &amp;nbsp; &quot;meat&quot;: [&quot;Salami&quot;]&lt;/font&gt;&lt;/div&gt;&lt;div&gt;&lt;font face=&quot;U1hpZtVvTLcUlfGHgEqY&quot;&gt;&amp;nbsp; },&lt;/font&gt;&lt;/div&gt;&lt;div&gt;&lt;font face=&quot;U1hpZtVvTLcUlfGHgEqY&quot;&gt;&amp;nbsp; &quot;extraCheese&quot;: true,&lt;/font&gt;&lt;/div&gt;&lt;div&gt;&lt;font face=&quot;U1hpZtVvTLcUlfGHgEqY&quot;&gt;&amp;nbsp; &quot;bakingDegree&quot;: &quot;knusprig&quot;&lt;/font&gt;&lt;/div&gt;&lt;div&gt;&lt;font face=&quot;U1hpZtVvTLcUlfGHgEqY&quot;&gt;}&lt;/font&gt;&lt;/div&gt;&lt;div&gt;&lt;br&gt;&lt;/div&gt;&lt;/span&gt;&lt;/div&gt;" style="shape=note;whiteSpace=wrap;html=1;backgroundOutline=1;darkOpacity=0.05;align=left;" vertex="1" parent="dNxyNK7c78bLwvsdeMH5-20">
          <mxGeometry x="190" y="250" width="200" height="160" as="geometry" />
        </mxCell>
        <mxCell id="aPchaK3MJJFlwDpqy7zF-23" value="&lt;b&gt;&lt;u&gt;&lt;span style=&quot;font-size: 11px; text-wrap: nowrap; background-color: rgb(255, 255, 255);&quot;&gt;Gesamptpreis&amp;nbsp;&lt;/span&gt;&lt;span style=&quot;font-size: 11px; text-wrap: nowrap; background-color: initial;&quot;&gt;Antwort&lt;/span&gt;&lt;/u&gt;&lt;/b&gt;&lt;div style=&quot;font-size: 11px; text-wrap: nowrap;&quot;&gt;&lt;div&gt;{&lt;/div&gt;&lt;div&gt;&amp;nbsp; &quot;totalPrice&quot;: 15.99,&lt;/div&gt;&lt;div&gt;&lt;span style=&quot;background-color: initial;&quot;&gt;}&lt;/span&gt;&lt;br&gt;&lt;/div&gt;&lt;div style=&quot;&quot;&gt;&lt;br&gt;&lt;/div&gt;&lt;/div&gt;" style="shape=note;whiteSpace=wrap;html=1;backgroundOutline=1;darkOpacity=0.05;align=left;" vertex="1" parent="dNxyNK7c78bLwvsdeMH5-20">
          <mxGeometry x="690" y="300" width="160" height="90" as="geometry" />
        </mxCell>
        <mxCell id="dNxyNK7c78bLwvsdeMH5-21" value="Business Layer" style="swimlane;html=1;startSize=20;horizontal=0;" parent="dNxyNK7c78bLwvsdeMH5-19" vertex="1">
          <mxGeometry x="20" y="430" width="990" height="260" as="geometry">
            <mxRectangle x="20" y="30" width="430" height="30" as="alternateBounds" />
          </mxGeometry>
        </mxCell>
        <mxCell id="aPchaK3MJJFlwDpqy7zF-6" value="&lt;strong&gt;Backend Client&lt;/strong&gt;" style="shape=cube;whiteSpace=wrap;html=1;boundedLbl=1;backgroundOutline=1;darkOpacity=0.05;darkOpacity2=0.1;" vertex="1" parent="dNxyNK7c78bLwvsdeMH5-21">
          <mxGeometry x="430" y="70" width="290" height="80" as="geometry" />
        </mxCell>
        <mxCell id="dNxyNK7c78bLwvsdeMH5-22" value="Data Acess Layer" style="swimlane;html=1;startSize=20;horizontal=0;" parent="dNxyNK7c78bLwvsdeMH5-19" vertex="1">
          <mxGeometry x="20" y="690" width="990" height="330" as="geometry">
            <mxRectangle x="20" y="60" width="430" height="30" as="alternateBounds" />
          </mxGeometry>
        </mxCell>
        <mxCell id="aPchaK3MJJFlwDpqy7zF-24" value="&lt;strong&gt;Datenbank Client&lt;/strong&gt;" style="shape=cube;whiteSpace=wrap;html=1;boundedLbl=1;backgroundOutline=1;darkOpacity=0.05;darkOpacity2=0.1;" vertex="1" parent="dNxyNK7c78bLwvsdeMH5-22">
          <mxGeometry x="430" y="120" width="290" height="80" as="geometry" />
        </mxCell>
        <mxCell id="aPchaK3MJJFlwDpqy7zF-11" value="" style="endArrow=classic;html=1;rounded=0;entryX=0.207;entryY=1.004;entryDx=0;entryDy=0;entryPerimeter=0;exitX=0.157;exitY=0.025;exitDx=0;exitDy=0;exitPerimeter=0;" edge="1" parent="dNxyNK7c78bLwvsdeMH5-19" source="aPchaK3MJJFlwDpqy7zF-6" target="aPchaK3MJJFlwDpqy7zF-2">
          <mxGeometry width="50" height="50" relative="1" as="geometry">
            <mxPoint x="260" y="460" as="sourcePoint" />
            <mxPoint x="320" y="350" as="targetPoint" />
          </mxGeometry>
        </mxCell>
        <mxCell id="aPchaK3MJJFlwDpqy7zF-12" value="Verfügbaren&lt;div&gt;Optionen&lt;/div&gt;&lt;div&gt;Antwort&lt;/div&gt;" style="edgeLabel;html=1;align=center;verticalAlign=middle;resizable=0;points=[];" vertex="1" connectable="0" parent="aPchaK3MJJFlwDpqy7zF-11">
          <mxGeometry x="0.4396" y="2" relative="1" as="geometry">
            <mxPoint as="offset" />
          </mxGeometry>
        </mxCell>
        <mxCell id="aPchaK3MJJFlwDpqy7zF-13" value="" style="endArrow=classic;html=1;rounded=0;entryX=0.857;entryY=1.031;entryDx=0;entryDy=0;entryPerimeter=0;exitX=0.783;exitY=0.004;exitDx=0;exitDy=0;exitPerimeter=0;" edge="1" parent="dNxyNK7c78bLwvsdeMH5-19" source="aPchaK3MJJFlwDpqy7zF-6" target="aPchaK3MJJFlwDpqy7zF-2">
          <mxGeometry width="50" height="50" relative="1" as="geometry">
            <mxPoint x="270" y="400" as="sourcePoint" />
            <mxPoint x="320" y="350" as="targetPoint" />
          </mxGeometry>
        </mxCell>
        <mxCell id="aPchaK3MJJFlwDpqy7zF-14" value="Gesamptpreis&lt;div&gt;Antwort&lt;/div&gt;" style="edgeLabel;html=1;align=center;verticalAlign=middle;resizable=0;points=[];" vertex="1" connectable="0" parent="aPchaK3MJJFlwDpqy7zF-13">
          <mxGeometry x="0.3497" y="-1" relative="1" as="geometry">
            <mxPoint as="offset" />
          </mxGeometry>
        </mxCell>
        <mxCell id="aPchaK3MJJFlwDpqy7zF-17" style="edgeStyle=orthogonalEdgeStyle;rounded=0;orthogonalLoop=1;jettySize=auto;html=1;entryX=0.855;entryY=1.004;entryDx=0;entryDy=0;entryPerimeter=0;exitX=0.862;exitY=0;exitDx=0;exitDy=0;exitPerimeter=0;" edge="1" parent="dNxyNK7c78bLwvsdeMH5-19" source="aPchaK3MJJFlwDpqy7zF-24" target="aPchaK3MJJFlwDpqy7zF-6">
          <mxGeometry relative="1" as="geometry">
            <mxPoint x="698" y="780" as="sourcePoint" />
            <mxPoint x="670" y="440" as="targetPoint" />
            <Array as="points">
              <mxPoint x="698" y="810" />
            </Array>
          </mxGeometry>
        </mxCell>
        <mxCell id="aPchaK3MJJFlwDpqy7zF-18" value="Verfügbare&amp;nbsp;&lt;div&gt;Optionen &amp;amp; Preise&lt;/div&gt;&lt;div&gt;&amp;nbsp;Antwort&lt;/div&gt;" style="edgeLabel;html=1;align=center;verticalAlign=middle;resizable=0;points=[];" vertex="1" connectable="0" parent="aPchaK3MJJFlwDpqy7zF-17">
          <mxGeometry x="0.1699" y="2" relative="1" as="geometry">
            <mxPoint x="2" y="-48" as="offset" />
          </mxGeometry>
        </mxCell>
        <mxCell id="aPchaK3MJJFlwDpqy7zF-9" value="" style="endArrow=classic;html=1;rounded=0;exitX=0.479;exitY=0.976;exitDx=0;exitDy=0;exitPerimeter=0;entryX=0.418;entryY=-0.006;entryDx=0;entryDy=0;entryPerimeter=0;" edge="1" parent="dNxyNK7c78bLwvsdeMH5-19" source="aPchaK3MJJFlwDpqy7zF-2" target="aPchaK3MJJFlwDpqy7zF-6">
          <mxGeometry width="50" height="50" relative="1" as="geometry">
            <mxPoint x="230" y="50" as="sourcePoint" />
            <mxPoint x="235.27272727272725" y="340" as="targetPoint" />
          </mxGeometry>
        </mxCell>
        <mxCell id="aPchaK3MJJFlwDpqy7zF-10" value="&lt;div&gt;Optionen&lt;/div&gt;Konfigutation&amp;nbsp;&lt;div&gt;Anfrage&lt;/div&gt;" style="edgeLabel;html=1;align=center;verticalAlign=middle;resizable=0;points=[];" vertex="1" connectable="0" parent="aPchaK3MJJFlwDpqy7zF-9">
          <mxGeometry x="0.1034" y="-2" relative="1" as="geometry">
            <mxPoint x="4" y="1" as="offset" />
          </mxGeometry>
        </mxCell>
        <mxCell id="aPchaK3MJJFlwDpqy7zF-15" style="edgeStyle=orthogonalEdgeStyle;rounded=0;orthogonalLoop=1;jettySize=auto;html=1;entryX=0.186;entryY=0.046;entryDx=0;entryDy=0;entryPerimeter=0;" edge="1" parent="dNxyNK7c78bLwvsdeMH5-19" source="aPchaK3MJJFlwDpqy7zF-6" target="aPchaK3MJJFlwDpqy7zF-24">
          <mxGeometry relative="1" as="geometry">
            <mxPoint x="510" y="780" as="targetPoint" />
            <Array as="points">
              <mxPoint x="510" y="794" />
            </Array>
          </mxGeometry>
        </mxCell>
        <mxCell id="aPchaK3MJJFlwDpqy7zF-16" value="Verfügbare&amp;nbsp;&lt;div&gt;Optionen &amp;amp; Preise&lt;/div&gt;&lt;div&gt;&amp;nbsp;Anfrage&lt;/div&gt;" style="edgeLabel;html=1;align=center;verticalAlign=middle;resizable=0;points=[];" vertex="1" connectable="0" parent="aPchaK3MJJFlwDpqy7zF-15">
          <mxGeometry x="0.7626" relative="1" as="geometry">
            <mxPoint y="-25" as="offset" />
          </mxGeometry>
        </mxCell>
        <mxCell id="aPchaK3MJJFlwDpqy7zF-8" value="&lt;strong&gt;Datenbank&lt;/strong&gt;" style="shape=cylinder3;whiteSpace=wrap;html=1;boundedLbl=1;backgroundOutline=1;size=15;" vertex="1" parent="1">
          <mxGeometry x="510" y="1160" width="220" height="70" as="geometry" />
        </mxCell>
        <mxCell id="aPchaK3MJJFlwDpqy7zF-26" value="" style="shape=flexArrow;endArrow=classic;startArrow=classic;html=1;rounded=0;exitX=0.5;exitY=0;exitDx=0;exitDy=0;exitPerimeter=0;entryX=0.47;entryY=0.963;entryDx=0;entryDy=0;entryPerimeter=0;" edge="1" parent="1" source="aPchaK3MJJFlwDpqy7zF-8" target="aPchaK3MJJFlwDpqy7zF-24">
          <mxGeometry width="100" height="100" relative="1" as="geometry">
            <mxPoint x="410" y="1070" as="sourcePoint" />
            <mxPoint x="510" y="970" as="targetPoint" />
          </mxGeometry>
        </mxCell>
        <mxCell id="aPchaK3MJJFlwDpqy7zF-27" value="SQL-Request" style="edgeLabel;html=1;align=center;verticalAlign=middle;resizable=0;points=[];" vertex="1" connectable="0" parent="aPchaK3MJJFlwDpqy7zF-26">
          <mxGeometry x="0.3434" y="5" relative="1" as="geometry">
            <mxPoint as="offset" />
          </mxGeometry>
        </mxCell>
        <mxCell id="aPchaK3MJJFlwDpqy7zF-32" value="&lt;b style=&quot;font-size: 23px;&quot;&gt;&lt;font style=&quot;font-size: 23px;&quot;&gt;Backend&amp;nbsp;&lt;/font&gt;&lt;/b&gt;&lt;div style=&quot;font-size: 23px;&quot;&gt;&lt;b style=&quot;&quot;&gt;&lt;font style=&quot;font-size: 23px;&quot;&gt;Server&lt;/font&gt;&lt;/b&gt;&lt;/div&gt;" style="rounded=1;whiteSpace=wrap;html=1;" vertex="1" parent="1">
          <mxGeometry x="1070" y="520" width="120" height="580" as="geometry" />
        </mxCell>
        <mxCell id="aPchaK3MJJFlwDpqy7zF-33" value="&lt;font style=&quot;font-size: 23px;&quot;&gt;&lt;b style=&quot;&quot;&gt;Client&lt;/b&gt;&lt;/font&gt;&lt;div style=&quot;font-size: 23px;&quot;&gt;&lt;font style=&quot;font-size: 23px;&quot;&gt;&lt;b style=&quot;&quot;&gt;Browser&lt;/b&gt;&lt;/font&gt;&lt;/div&gt;" style="rounded=1;whiteSpace=wrap;html=1;" vertex="1" parent="1">
          <mxGeometry x="1070" y="80" width="120" height="430" as="geometry" />
        </mxCell>
        <mxCell id="aPchaK3MJJFlwDpqy7zF-34" value="&lt;font style=&quot;font-size: 22px;&quot;&gt;&lt;b&gt;External&amp;nbsp;&lt;/b&gt;&lt;/font&gt;&lt;div style=&quot;font-size: 22px;&quot;&gt;&lt;font style=&quot;font-size: 22px;&quot;&gt;&lt;b&gt;Database&lt;/b&gt;&lt;/font&gt;&lt;/div&gt;" style="rounded=1;whiteSpace=wrap;html=1;" vertex="1" parent="1">
          <mxGeometry x="1070" y="1110" width="120" height="120" as="geometry" />
        </mxCell>
      </root>
    </mxGraphModel>
  </diagram>
</mxfile>
